<mxfile host="65bd71144e">
    <diagram id="swsco7EXKMAQk_w0YZR_" name="Page-1">
        <mxGraphModel dx="796" dy="344" grid="1" gridSize="10" guides="1" tooltips="1" connect="1" arrows="1" fold="1" page="1" pageScale="1" pageWidth="1100" pageHeight="1700" math="0" shadow="0">
            <root>
                <mxCell id="0"/>
                <mxCell id="1" parent="0"/>
                <mxCell id="2" value="True" style="text;html=1;strokeColor=none;fillColor=none;align=center;verticalAlign=middle;whiteSpace=wrap;rounded=0;labelBackgroundColor=none;" vertex="1" parent="1">
                    <mxGeometry x="375" y="590" width="60" height="30" as="geometry"/>
                </mxCell>
                <mxCell id="3" value="Fales" style="text;html=1;strokeColor=none;fillColor=none;align=center;verticalAlign=middle;whiteSpace=wrap;rounded=0;labelBackgroundColor=none;" vertex="1" parent="1">
                    <mxGeometry x="475" y="500" width="60" height="30" as="geometry"/>
                </mxCell>
                <mxCell id="4" value="" style="edgeStyle=none;html=1;labelBackgroundColor=none;" edge="1" parent="1" source="5" target="14">
                    <mxGeometry relative="1" as="geometry"/>
                </mxCell>
                <mxCell id="5" value="" style="ellipse;whiteSpace=wrap;html=1;aspect=fixed;labelBackgroundColor=none;" vertex="1" parent="1">
                    <mxGeometry x="415" y="410" width="20" height="20" as="geometry"/>
                </mxCell>
                <mxCell id="6" value="" style="edgeStyle=none;html=1;labelBackgroundColor=none;" edge="1" parent="1" source="7" target="9">
                    <mxGeometry relative="1" as="geometry"/>
                </mxCell>
                <mxCell id="7" value="Start" style="strokeWidth=2;html=1;shape=mxgraph.flowchart.terminator;whiteSpace=wrap;labelBackgroundColor=none;" vertex="1" parent="1">
                    <mxGeometry x="375" y="110" width="100" height="60" as="geometry"/>
                </mxCell>
                <mxCell id="8" value="" style="edgeStyle=none;html=1;labelBackgroundColor=none;" edge="1" parent="1" source="9" target="11">
                    <mxGeometry relative="1" as="geometry"/>
                </mxCell>
                <mxCell id="9" value="numbers = [6, 5, 3, 8, 4, 2, 5, 4, 11]" style="rounded=1;whiteSpace=wrap;html=1;absoluteArcSize=1;arcSize=14;strokeWidth=2;labelBackgroundColor=none;" vertex="1" parent="1">
                    <mxGeometry x="320" y="220" width="210" height="50" as="geometry"/>
                </mxCell>
                <mxCell id="10" value="" style="edgeStyle=none;html=1;labelBackgroundColor=none;" edge="1" parent="1" source="11" target="5">
                    <mxGeometry relative="1" as="geometry"/>
                </mxCell>
                <mxCell id="11" value="sum = 0" style="rounded=1;whiteSpace=wrap;html=1;absoluteArcSize=1;arcSize=14;strokeWidth=2;labelBackgroundColor=none;" vertex="1" parent="1">
                    <mxGeometry x="375" y="320" width="100" height="40" as="geometry"/>
                </mxCell>
                <mxCell id="12" value="" style="edgeStyle=none;html=1;labelBackgroundColor=none;" edge="1" parent="1" source="14" target="16">
                    <mxGeometry relative="1" as="geometry"/>
                </mxCell>
                <mxCell id="13" style="edgeStyle=none;html=1;entryX=1;entryY=0.5;entryDx=0;entryDy=0;entryPerimeter=0;labelBackgroundColor=none;" edge="1" parent="1" source="14" target="19">
                    <mxGeometry relative="1" as="geometry">
                        <Array as="points">
                            <mxPoint x="560" y="530"/>
                            <mxPoint x="560" y="830"/>
                        </Array>
                    </mxGeometry>
                </mxCell>
                <mxCell id="14" value="val in numbers" style="strokeWidth=2;html=1;shape=mxgraph.flowchart.decision;whiteSpace=wrap;labelBackgroundColor=none;" vertex="1" parent="1">
                    <mxGeometry x="375" y="480" width="100" height="100" as="geometry"/>
                </mxCell>
                <mxCell id="15" value="" style="edgeStyle=none;html=1;labelBackgroundColor=none;" edge="1" parent="1" source="16" target="18">
                    <mxGeometry relative="1" as="geometry"/>
                </mxCell>
                <mxCell id="16" value="sum += val" style="rounded=1;whiteSpace=wrap;html=1;absoluteArcSize=1;arcSize=14;strokeWidth=2;labelBackgroundColor=none;" vertex="1" parent="1">
                    <mxGeometry x="375" y="630" width="100" height="30" as="geometry"/>
                </mxCell>
                <mxCell id="17" style="edgeStyle=none;html=1;entryX=0;entryY=0.5;entryDx=0;entryDy=0;labelBackgroundColor=none;" edge="1" parent="1" source="18" target="5">
                    <mxGeometry relative="1" as="geometry">
                        <Array as="points">
                            <mxPoint x="340" y="740"/>
                            <mxPoint x="340" y="420"/>
                        </Array>
                    </mxGeometry>
                </mxCell>
                <mxCell id="18" value="sum" style="strokeWidth=2;html=1;shape=mxgraph.flowchart.display;whiteSpace=wrap;labelBackgroundColor=none;" vertex="1" parent="1">
                    <mxGeometry x="375" y="710" width="100" height="60" as="geometry"/>
                </mxCell>
                <mxCell id="21" value="" style="edgeStyle=none;html=1;labelBackgroundColor=none;" edge="1" parent="1" source="19" target="20">
                    <mxGeometry relative="1" as="geometry"/>
                </mxCell>
                <mxCell id="19" value="This is sum" style="strokeWidth=2;html=1;shape=mxgraph.flowchart.display;whiteSpace=wrap;labelBackgroundColor=none;" vertex="1" parent="1">
                    <mxGeometry x="375" y="800" width="100" height="60" as="geometry"/>
                </mxCell>
                <mxCell id="20" value="End" style="strokeWidth=2;html=1;shape=mxgraph.flowchart.terminator;whiteSpace=wrap;labelBackgroundColor=none;" vertex="1" parent="1">
                    <mxGeometry x="375" y="890" width="100" height="60" as="geometry"/>
                </mxCell>
            </root>
        </mxGraphModel>
    </diagram>
</mxfile>